<?xml version="1.0" encoding="UTF-8"?>
<svg id="_레이어_2" data-name="레이어 2" xmlns="http://www.w3.org/2000/svg" viewBox="0 0 1023.45 725.03">
  <defs>
    <style>
      .cls-1 {
        fill: none;
      }
    </style>
  </defs>
  <g id="resources">
    <g>
      <g>
        <g>
          <polygon points="589.47 508.92 660.71 508.92 660.71 399.27 791.42 399.27 791.42 338.28 660.71 338.28 660.71 277.26 809.73 277.26 809.73 217.37 589.47 217.37 589.47 508.92 589.47 508.92 589.47 508.92"/>
          <polygon points="364.95 511.31 427.12 511.31 544.93 213.72 482.74 213.72 364.95 511.31 364.95 511.31 364.95 511.31"/>
        </g>
        <path d="M278.73,293.5v5.51h-25.77v33.05h25.77v175.18h39.24v-175.18h50.55v-33.05h-50.55v-4.69c0-38.41,28.21-43.32,43.34-43.32,6.14,0,10.97,1.03,10.97,1.03v-33.92s-6.87-1.46-15.87-1.46c-26.18,0-77.68,8.58-77.68,76.84h0Z"/>
      </g>
      <rect class="cls-1" width="1023.45" height="725.03"/>
    </g>
  </g>
</svg>