<?xml version="1.0" encoding="UTF-8"?>
<svg id="_레이어_2" data-name="레이어 2" xmlns="http://www.w3.org/2000/svg" viewBox="0 0 834.1 128.64">
  <g id="resources">
    <polygon points="96.18 126.45 126.69 126.45 126.69 79.48 182.68 79.48 182.68 53.36 126.69 53.36 126.69 27.22 190.52 27.22 190.52 1.56 96.18 1.56 96.18 126.45 96.18 126.45 96.18 126.45"/>
    <polygon points="0 127.47 26.63 127.47 77.09 0 50.46 0 0 127.47 0 127.47 0 127.47"/>
    <path d="M365.66,83.95c0,11.34-5.02,17.09-14.9,17.09s-14.9-5.97-14.9-17.73v-46.81h-29.17v47.32c0,28.48,15.98,44.82,43.82,44.82s44.32-16.57,44.32-45.47v-46.67h-29.17v47.45h0Z"/>
    <path d="M244.6,34.21c-25.96,0-47.02,21.14-47.02,47.21s21.06,47.22,47.02,47.22,47.02-21.14,47.02-47.22-21.04-47.21-47.02-47.21h0ZM244.6,102.91c-11.79,0-21.39-9.64-21.39-21.49s9.59-21.49,21.39-21.49,21.41,9.64,21.41,21.49-9.6,21.49-21.41,21.49h0Z"/>
    <path d="M589.03,43.39c-6.3-5.85-14.53-9.36-24.52-9.36-24.69,0-44.71,21.14-44.71,47.2s20.02,47.21,44.71,47.21c10.02,0,17.78-4.08,24.52-10.81v8.35h29.33V2.4h-29.33v41h0ZM566.98,102.93c-11.72,0-21.28-9.73-21.28-21.7s9.55-21.69,21.28-21.69,21.28,9.74,21.28,21.69-9.54,21.7-21.28,21.7h0Z"/>
    <path d="M804.78,43.39c-6.3-5.85-14.54-9.36-24.52-9.36-24.69,0-44.72,21.14-44.72,47.2s20.02,47.21,44.72,47.21c10.02,0,17.78-4.08,24.52-10.81v8.35h29.33V2.4h-29.33v41h0ZM782.72,102.93c-11.73,0-21.28-9.73-21.28-21.7s9.55-21.69,21.28-21.69,21.28,9.74,21.28,21.69-9.55,21.7-21.28,21.7h0Z"/>
    <path d="M723.85,86.78c2.52-20.1-4.62-32.81-12.35-40.48-8.49-7.62-19.77-12.27-32.15-12.27-26.39,0-46.95,21.12-46.99,47.18v.68c.1,8.12,2.27,15.74,6.02,22.39.04.06.07.12.11.19.08.14.16.28.23.41,2.02,3.49,4.5,6.74,7.44,9.64,6.4,6.4,15.15,11,24.38,12.97.01,0,.02,0,.04,0,.25.06.5.11.75.16.07.01.13.03.2.04.21.04.41.08.63.11.29.05.57.1.85.15.04,0,.08.01.12.02.27.04.54.08.81.12.12.02.23.03.35.05.23.03.46.06.69.09.17.02.33.04.49.06.2.02.4.04.6.06.2.02.4.04.59.05.18.01.35.03.53.04.23.02.46.03.69.04.16,0,.31.02.46.03.27.01.54.02.81.03.12,0,.24,0,.35.01.39,0,.78.01,1.17.01h0c1.62,0,3.22-.08,4.79-.23,8.24-.81,15.86-3.7,22.33-8.14h0c.15-.1.29-.2.44-.31,4.12-2.89,7.77-6.41,10.79-10.42.27-.35.52-.71.78-1.07h0c1.08-1.48,2.01-2.9,2.77-4.21l-22.59-11.56c-.05.08-.11.15-.16.23-.77,1.09-4.41,5.87-10.49,8.47-2.42.97-5.09,1.56-7.74,1.67-.3.01-.61.02-.92.02-.21,0-.42,0-.63-.01-.09,0-.18,0-.27,0-8.37-.34-15.68-5.39-19.02-12.54-.5-1.07-.94-2.51-1.06-3.68h64.15ZM660.72,69.34h-.3s1.3-13.65,18.07-13.79c16.77.14,18.07,13.79,18.07,13.79h-35.83Z"/>
    <path d="M480,34.47c-.23-.04-.46-.06-.69-.1-5.18-.72-9.66-.59-13.52.1-13.38,2.39-19.3,11.37-20.76,13.99-.25.46-.37.72-.37.72l-.29-.34c.09-.79.29-2.86.29-5.13v-7.69h-28.4v89.97h29.6v-40.88c0-3.78.39-9.18,1.31-12.75h0s2.43-13.71,17.19-12.43h0s7.7.01,9.87,7.1c0,0,.55,1.73.55,6.66v52.3h29.6v-59.02c0-21.3-10.22-30.36-24.38-32.49h0Z"/>
  </g>
</svg>