<?xml version="1.0" encoding="UTF-8"?>
<svg id="_레이어_2" data-name="레이어 2" xmlns="http://www.w3.org/2000/svg" viewBox="0 0 460.19 127.52">
  <g id="resources">
    <g>
      <path d="M11.04,32.92v2.36H0v14.16h11.04v75.04h16.81V49.43h21.65v-14.16h-21.65v-2.01c0-16.45,12.08-18.56,18.57-18.56,2.63,0,4.7.44,4.7.44V.63s-2.94-.63-6.8-.63C33.1,0,11.04,3.67,11.04,32.91h0Z"/>
      <path d="M102.49,33.09c-25.82,0-46.76,21.13-46.76,47.18s20.94,47.18,46.76,47.18,46.75-21.12,46.75-47.18-20.94-47.18-46.75-47.18h0ZM102.49,111.09c-16.84,0-30.54-13.83-30.54-30.81s13.7-30.82,30.54-30.82,30.53,13.82,30.53,30.82-13.7,30.81-30.53,30.81h0Z"/>
      <path d="M443.19,49.22c-6.92-9.94-17.55-16.25-30.95-16.25-24.58,0-44.51,21.17-44.51,47.28s19.93,47.27,44.51,47.27c13.39,0,24.02-6.31,30.95-16.26v14.1h16.99V1.03h-16.99v48.19h0ZM413.52,109.45c-15.82,0-28.68-13.06-28.68-29.11s12.86-29.11,28.68-29.11,28.68,13.06,28.68,29.11-12.87,29.11-28.68,29.11h0Z"/>
      <path d="M229.26,86.58c0,15.98-7.96,24.78-22.43,24.78s-22.56-9.28-22.56-25.43v-50.72h-17.26v51.38c0,25.97,14.42,40.85,39.56,40.85s39.96-15.17,39.96-41.63v-50.6h-17.26v51.38h0Z"/>
      <path d="M337.07,37.06h0s0,0,0,0c-.03-.02-.07-.04-.1-.06-7.46-4.33-16.04-4.38-21.7-3.73-1.76.18-3.44.47-5.03.86-.74.18-1.15.29-1.15.29h0c-12.57,3.46-19.8,12.69-22.59,18.81h-.35s.35-2.96.35-6.44v-11.66h-16.36v90.22h16.89v-43.42c0-4.35.35-8.35,1.39-11.83,3.23-11.24,12.06-19.48,23.34-21.23,4.44-.66,12.17-.74,17.3,5.21.91,1.13,2.16,3.1,2.93,6.1.1.41.19.84.28,1.26,0,.01,0,.02,0,.03.53,2.77.72,5.87.72,9.14v54.73h16.89v-58.56c0-14.72-4.12-24.64-12.79-29.74h0Z"/>
    </g>
  </g>
</svg>